<svg width="94" height="97" viewBox="0 0 94 97" fill="none" xmlns="http://www.w3.org/2000/svg">
<rect x="0.150049" y="0.149988" width="93.3" height="2.16" stroke="#F0F0F0" stroke-width="0.3"/>
<rect x="0.150049" y="68.15" width="93.3" height="2.3" stroke="#F0F0F0" stroke-width="0.3"/>
<rect x="3.15005" y="9.75997" width="11.3" height="3.3" fill="#303030" stroke="#F0F0F0" stroke-width="0.3"/>
<mask id="path-4-outside-1_171_1225" maskUnits="userSpaceOnUse" x="3.30005" y="12.91" width="11" height="2" fill="black">
<rect fill="white" x="3.30005" y="12.91" width="11" height="2"/>
<path d="M4.30005 12.91H13.3V13.91H4.30005V12.91Z"/>
</mask>
<path d="M13.3 13.91V14.21H13.6V13.91H13.3ZM4.30005 13.91H4.00005V14.21H4.30005V13.91ZM13.3 12.91H13V13.91H13.3H13.6V12.91H13.3ZM13.3 13.91V13.61H4.30005V13.91V14.21H13.3V13.91ZM4.30005 13.91H4.60005V12.91H4.30005H4.00005V13.91H4.30005Z" fill="#F0F0F0" mask="url(#path-4-outside-1_171_1225)"/>
<mask id="path-6-outside-2_171_1225" maskUnits="userSpaceOnUse" x="3.30005" y="13.91" width="11" height="50" fill="black">
<rect fill="white" x="3.30005" y="13.91" width="11" height="50"/>
<path d="M4.30005 13.91H13.3V63.91H4.30005V13.91Z"/>
</mask>
<path d="M13.3 13.91H13V63.91H13.3H13.6V13.91H13.3ZM4.30005 63.91H4.60005V13.91H4.30005H4.00005V63.91H4.30005Z" fill="#F0F0F0" mask="url(#path-6-outside-2_171_1225)"/>
<mask id="path-8-outside-3_171_1225" maskUnits="userSpaceOnUse" x="2.30005" y="63.91" width="13" height="4" fill="black">
<rect fill="white" x="2.30005" y="63.91" width="13" height="4"/>
<path d="M3.30005 67.91H14.3V64.91H3.30005V67.91Z"/>
</mask>
<path d="M14.3 64.91V64.61H14.6V64.91H14.3ZM3.30005 64.91H3.00005V64.61H3.30005V64.91ZM14.3 67.91H14V64.91H14.3H14.6V67.91H14.3ZM14.3 64.91V65.21H3.30005V64.91V64.61H14.3V64.91ZM3.30005 64.91H3.60005V67.91H3.30005H3.00005V64.91H3.30005Z" fill="#F0F0F0" mask="url(#path-8-outside-3_171_1225)"/>
<mask id="path-10-outside-4_171_1225" maskUnits="userSpaceOnUse" x="3.30005" y="62.91" width="11" height="2" fill="black">
<rect fill="white" x="3.30005" y="62.91" width="11" height="2"/>
<path d="M4.30005 64.91H13.3V63.91H4.30005V64.91Z"/>
</mask>
<path d="M13.3 63.91V63.61H13.6V63.91H13.3ZM4.30005 63.91H4.00005V63.61H4.30005V63.91ZM13.3 64.91H13V63.91H13.3H13.6V64.91H13.3ZM13.3 63.91V64.21H4.30005V63.91V63.61H13.3V63.91ZM4.30005 63.91H4.60005V64.91H4.30005H4.00005V63.91H4.30005Z" fill="#F0F0F0" mask="url(#path-10-outside-4_171_1225)"/>
<rect x="29.15" y="9.75997" width="11.3" height="3.3" stroke="#F0F0F0" stroke-width="0.3"/>
<mask id="path-13-outside-5_171_1225" maskUnits="userSpaceOnUse" x="29.3" y="12.91" width="11" height="2" fill="black">
<rect fill="white" x="29.3" y="12.91" width="11" height="2"/>
<path d="M30.3 12.91H39.3V13.91H30.3V12.91Z"/>
</mask>
<path d="M39.3 13.91V14.21H39.6V13.91H39.3ZM30.3 13.91H30V14.21H30.3V13.91ZM39.3 12.91H39V13.91H39.3H39.6V12.91H39.3ZM39.3 13.91V13.61H30.3V13.91V14.21H39.3V13.91ZM30.3 13.91H30.6V12.91H30.3H30V13.91H30.3Z" fill="#F0F0F0" mask="url(#path-13-outside-5_171_1225)"/>
<mask id="path-15-outside-6_171_1225" maskUnits="userSpaceOnUse" x="29.3" y="13.91" width="11" height="50" fill="black">
<rect fill="white" x="29.3" y="13.91" width="11" height="50"/>
<path d="M30.3 13.91H39.3V63.91H30.3V13.91Z"/>
</mask>
<path d="M39.3 13.91H39V63.91H39.3H39.6V13.91H39.3ZM30.3 63.91H30.6V13.91H30.3H30V63.91H30.3Z" fill="#F0F0F0" mask="url(#path-15-outside-6_171_1225)"/>
<mask id="path-17-outside-7_171_1225" maskUnits="userSpaceOnUse" x="28.3" y="63.91" width="13" height="4" fill="black">
<rect fill="white" x="28.3" y="63.91" width="13" height="4"/>
<path d="M29.3 67.91H40.3V64.91H29.3V67.91Z"/>
</mask>
<path d="M40.3 64.91V64.61H40.6V64.91H40.3ZM29.3 64.91H29V64.61H29.3V64.91ZM40.3 67.91H40V64.91H40.3H40.6V67.91H40.3ZM40.3 64.91V65.21H29.3V64.91V64.61H40.3V64.91ZM29.3 64.91H29.6V67.91H29.3H29V64.91H29.3Z" fill="#F0F0F0" mask="url(#path-17-outside-7_171_1225)"/>
<mask id="path-19-outside-8_171_1225" maskUnits="userSpaceOnUse" x="29.3" y="62.91" width="11" height="2" fill="black">
<rect fill="white" x="29.3" y="62.91" width="11" height="2"/>
<path d="M30.3 64.91H39.3V63.91H30.3V64.91Z"/>
</mask>
<path d="M39.3 63.91V63.61H39.6V63.91H39.3ZM30.3 63.91H30V63.61H30.3V63.91ZM39.3 64.91H39V63.91H39.3H39.6V64.91H39.3ZM39.3 63.91V64.21H30.3V63.91V63.61H39.3V63.91ZM30.3 63.91H30.6V64.91H30.3H30V63.91H30.3Z" fill="#F0F0F0" mask="url(#path-19-outside-8_171_1225)"/>
<rect x="79.15" y="9.75997" width="11.3" height="3.3" stroke="#F0F0F0" stroke-width="0.3"/>
<mask id="path-22-outside-9_171_1225" maskUnits="userSpaceOnUse" x="79.3" y="12.91" width="11" height="2" fill="black">
<rect fill="white" x="79.3" y="12.91" width="11" height="2"/>
<path d="M80.3 12.91H89.3V13.91H80.3V12.91Z"/>
</mask>
<path d="M89.3 13.91V14.21H89.6V13.91H89.3ZM80.3 13.91H80V14.21H80.3V13.91ZM89.3 12.91H89V13.91H89.3H89.6V12.91H89.3ZM89.3 13.91V13.61H80.3V13.91V14.21H89.3V13.91ZM80.3 13.91H80.6V12.91H80.3H80V13.91H80.3Z" fill="#F0F0F0" mask="url(#path-22-outside-9_171_1225)"/>
<mask id="path-24-outside-10_171_1225" maskUnits="userSpaceOnUse" x="79.3" y="13.91" width="11" height="50" fill="black">
<rect fill="white" x="79.3" y="13.91" width="11" height="50"/>
<path d="M80.3 13.91H89.3V63.91H80.3V13.91Z"/>
</mask>
<path d="M89.3 13.91H89V63.91H89.3H89.6V13.91H89.3ZM80.3 63.91H80.6V13.91H80.3H80V63.91H80.3Z" fill="#F0F0F0" mask="url(#path-24-outside-10_171_1225)"/>
<mask id="path-26-outside-11_171_1225" maskUnits="userSpaceOnUse" x="78.3" y="63.91" width="13" height="4" fill="black">
<rect fill="white" x="78.3" y="63.91" width="13" height="4"/>
<path d="M79.3 67.91H90.3V64.91H79.3V67.91Z"/>
</mask>
<path d="M90.3 64.91V64.61H90.6V64.91H90.3ZM79.3 64.91H79V64.61H79.3V64.91ZM90.3 67.91H90V64.91H90.3H90.6V67.91H90.3ZM90.3 64.91V65.21H79.3V64.91V64.61H90.3V64.91ZM79.3 64.91H79.6V67.91H79.3H79V64.91H79.3Z" fill="#F0F0F0" mask="url(#path-26-outside-11_171_1225)"/>
<mask id="path-28-outside-12_171_1225" maskUnits="userSpaceOnUse" x="79.3" y="62.91" width="11" height="2" fill="black">
<rect fill="white" x="79.3" y="62.91" width="11" height="2"/>
<path d="M80.3 64.91H89.3V63.91H80.3V64.91Z"/>
</mask>
<path d="M89.3 63.91V63.61H89.6V63.91H89.3ZM80.3 63.91H80V63.61H80.3V63.91ZM89.3 64.91H89V63.91H89.3H89.6V64.91H89.3ZM89.3 63.91V64.21H80.3V63.91V63.61H89.3V63.91ZM80.3 63.91H80.6V64.91H80.3H80V63.91H80.3Z" fill="#F0F0F0" mask="url(#path-28-outside-12_171_1225)"/>
<rect x="55.15" y="9.75997" width="11.3" height="3.3" stroke="#F0F0F0" stroke-width="0.3"/>
<mask id="path-31-outside-13_171_1225" maskUnits="userSpaceOnUse" x="55.3" y="12.91" width="11" height="2" fill="black">
<rect fill="white" x="55.3" y="12.91" width="11" height="2"/>
<path d="M56.3 12.91H65.3V13.91H56.3V12.91Z"/>
</mask>
<path d="M65.3 13.91V14.21H65.6V13.91H65.3ZM56.3 13.91H56V14.21H56.3V13.91ZM65.3 12.91H65V13.91H65.3H65.6V12.91H65.3ZM65.3 13.91V13.61H56.3V13.91V14.21H65.3V13.91ZM56.3 13.91H56.6V12.91H56.3H56V13.91H56.3Z" fill="#F0F0F0" mask="url(#path-31-outside-13_171_1225)"/>
<mask id="path-33-outside-14_171_1225" maskUnits="userSpaceOnUse" x="55.3" y="13.91" width="11" height="50" fill="black">
<rect fill="white" x="55.3" y="13.91" width="11" height="50"/>
<path d="M56.3 13.91H65.3V63.91H56.3V13.91Z"/>
</mask>
<path d="M65.3 13.91H65V63.91H65.3H65.6V13.91H65.3ZM56.3 63.91H56.6V13.91H56.3H56V63.91H56.3Z" fill="#F0F0F0" mask="url(#path-33-outside-14_171_1225)"/>
<mask id="path-35-outside-15_171_1225" maskUnits="userSpaceOnUse" x="54.3" y="63.91" width="13" height="4" fill="black">
<rect fill="white" x="54.3" y="63.91" width="13" height="4"/>
<path d="M55.3 67.91H66.3V64.91H55.3V67.91Z"/>
</mask>
<path d="M66.3 64.91V64.61H66.6V64.91H66.3ZM55.3 64.91H55V64.61H55.3V64.91ZM66.3 67.91H66V64.91H66.3H66.6V67.91H66.3ZM66.3 64.91V65.21H55.3V64.91V64.61H66.3V64.91ZM55.3 64.91H55.6V67.91H55.3H55V64.91H55.3Z" fill="#F0F0F0" mask="url(#path-35-outside-15_171_1225)"/>
<mask id="path-37-outside-16_171_1225" maskUnits="userSpaceOnUse" x="55.3" y="62.91" width="11" height="2" fill="black">
<rect fill="white" x="55.3" y="62.91" width="11" height="2"/>
<path d="M56.3 64.91H65.3V63.91H56.3V64.91Z"/>
</mask>
<path d="M65.3 63.91V63.61H65.6V63.91H65.3ZM56.3 63.91H56V63.61H56.3V63.91ZM65.3 64.91H65V63.91H65.3H65.6V64.91H65.3ZM65.3 63.91V64.21H56.3V63.91V63.61H65.3V63.91ZM56.3 63.91H56.6V64.91H56.3H56V63.91H56.3Z" fill="#F0F0F0" mask="url(#path-37-outside-16_171_1225)"/>
<mask id="path-39-outside-17_171_1225" maskUnits="userSpaceOnUse" x="3.02002" y="7.73999" width="87" height="3" fill="black">
<rect fill="white" x="3.02002" y="7.73999" width="87" height="3"/>
<path d="M4.02002 7.73999H89.58V9.59999H4.02002V7.73999Z"/>
</mask>
<path d="M89.58 9.59999V9.89999H89.88V9.59999H89.58ZM4.02002 9.59999H3.72002V9.89999H4.02002V9.59999ZM89.58 7.73999H89.28V9.59999H89.58H89.88V7.73999H89.58ZM89.58 9.59999V9.29999H4.02002V9.59999V9.89999H89.58V9.59999ZM4.02002 9.59999H4.32002V7.73999H4.02002H3.72002V9.59999H4.02002Z" fill="#F0F0F0" mask="url(#path-39-outside-17_171_1225)"/>
<mask id="path-41-outside-18_171_1225" maskUnits="userSpaceOnUse" x="1.16003" y="2.15997" width="91" height="6" fill="black">
<rect fill="white" x="1.16003" y="2.15997" width="91" height="6"/>
<path d="M2.16003 2.15997H91.44V7.73998H2.16003V2.15997Z"/>
</mask>
<path d="M91.44 7.73998V8.03998H91.74V7.73998H91.44ZM2.16003 7.73998H1.86003V8.03998H2.16003V7.73998ZM91.44 2.15997H91.14V7.73998H91.44H91.74V2.15997H91.44ZM91.44 7.73998V7.43998H2.16003V7.73998V8.03998H91.44V7.73998ZM2.16003 7.73998H2.46003V2.15997H2.16003H1.86003V7.73998H2.16003Z" fill="#F0F0F0" mask="url(#path-41-outside-18_171_1225)"/>
<path d="M11.6829 76.2961V76.3351C11.6698 76.3677 11.6601 76.4165 11.6536 76.4816C11.6471 76.5467 11.6438 76.6053 11.6438 76.6574C11.6438 76.8592 11.6698 77.0838 11.7219 77.3312C11.7805 77.5721 11.8879 77.8749 12.0442 78.2394L16.3704 87.9953L20.55 78.3176C20.6477 78.0767 20.7519 77.813 20.8625 77.5266C20.9732 77.2401 21.0286 76.9504 21.0286 76.6574C21.0286 76.5793 21.0221 76.5142 21.009 76.4621C20.996 76.4035 20.983 76.3612 20.97 76.3351V76.2961H22.9719V76.3351C22.8482 76.4588 22.6985 76.6802 22.5227 76.9992C22.3469 77.3182 22.1549 77.7121 21.9465 78.1808L16.3508 90.6027H15.5696L10.2668 78.6594C10.1431 78.3794 10.0129 78.1092 9.87622 77.8488C9.74601 77.5884 9.62231 77.354 9.50513 77.1457C9.38794 76.9308 9.28377 76.7518 9.19263 76.6086C9.10148 76.4654 9.03963 76.3742 9.00708 76.3351V76.2961H11.6829ZM23.968 76.2961C24.7818 76.2961 25.5891 76.2928 26.3899 76.2863C27.1972 76.2798 27.9361 76.2733 28.6067 76.2668C29.2773 76.2538 29.8502 76.2375 30.3254 76.218C30.8007 76.1984 31.123 76.1724 31.2922 76.1398L30.8137 77.4387C30.5989 77.3801 30.3482 77.328 30.0618 77.2824C29.8144 77.2433 29.5116 77.2075 29.1536 77.175C28.802 77.1359 28.3951 77.1164 27.9329 77.1164C27.7766 77.1164 27.5878 77.1229 27.3665 77.1359C27.1516 77.1424 26.9433 77.1522 26.7415 77.1652C26.5071 77.1782 26.2694 77.1913 26.0286 77.2043V82.5363C26.6991 82.5298 27.3046 82.5103 27.845 82.4777C28.3853 82.4452 28.8443 82.4126 29.2219 82.3801C29.6646 82.341 30.0553 82.2954 30.3938 82.2433L30.0911 83.6594C29.6418 83.6008 29.1829 83.5454 28.7141 83.4933C28.3105 83.4478 27.871 83.4087 27.3958 83.3762C26.9205 83.3371 26.4648 83.3176 26.0286 83.3176V89.4406C26.7968 89.4406 27.5032 89.4081 28.1477 89.343C28.7922 89.2779 29.3554 89.203 29.8372 89.1183C30.3971 89.0272 30.9081 88.9198 31.3704 88.7961L31.0872 90.3781C31.009 90.3716 30.8918 90.3651 30.7356 90.3586C30.5793 90.3521 30.4036 90.3456 30.2083 90.3391C30.0194 90.3325 29.8176 90.326 29.6028 90.3195C29.3944 90.3195 29.1959 90.3163 29.0071 90.3098C28.8183 90.3098 28.649 90.3065 28.4993 90.3C28.356 90.3 28.2519 90.3 28.1868 90.3H23.968V90.2609C24.0071 90.1242 24.0429 89.9549 24.0754 89.7531C24.1145 89.5513 24.1471 89.3006 24.1731 89.0012C24.1991 88.7017 24.2187 88.3469 24.2317 87.9367C24.2447 87.52 24.2512 87.035 24.2512 86.4816V80.1242C24.2512 79.5708 24.2447 79.0891 24.2317 78.6789C24.2187 78.2622 24.1991 77.9042 24.1731 77.6047C24.1471 77.2987 24.1145 77.0448 24.0754 76.843C24.0429 76.6411 24.0071 76.4719 23.968 76.3351V76.2961ZM35.8333 86.4816C35.8333 87.035 35.8398 87.52 35.8528 87.9367C35.8723 88.3469 35.8918 88.7017 35.9114 89.0012C35.9374 89.3006 35.9667 89.5513 35.9993 89.7531C36.0383 89.9549 36.0774 90.1242 36.1165 90.2609V90.3H33.7727V90.2609C33.8118 90.1242 33.8476 89.9549 33.8801 89.7531C33.9192 89.5513 33.9485 89.3006 33.968 89.0012C33.9941 88.7017 34.0136 88.3469 34.0266 87.9367C34.0461 87.5266 34.0559 87.0415 34.0559 86.4816V80.1242C34.0559 79.5708 34.0461 79.0891 34.0266 78.6789C34.0136 78.2622 33.9941 77.9042 33.968 77.6047C33.9485 77.3052 33.9192 77.0545 33.8801 76.8527C33.8476 76.6444 33.8118 76.4719 33.7727 76.3351V76.2961L34.1829 76.3351C34.3066 76.3482 34.4433 76.3579 34.593 76.3644C34.7493 76.3644 34.9088 76.3644 35.0715 76.3644C35.3254 76.3644 35.6672 76.3351 36.0969 76.2766C36.5331 76.2114 37.0865 76.1789 37.7571 76.1789C38.3821 76.1789 38.9583 76.2635 39.4856 76.4328C40.0194 76.6021 40.4817 76.8495 40.8723 77.175C41.2629 77.5005 41.5657 77.9009 41.7805 78.3762C42.0019 78.8449 42.1125 79.3788 42.1125 79.9777C42.1125 80.4465 42.0507 80.8827 41.927 81.2863C41.8098 81.6835 41.6405 82.0448 41.4192 82.3703C41.2043 82.6958 40.9439 82.9855 40.6379 83.2394C40.3319 83.4868 39.9902 83.6952 39.6125 83.8644L43.0403 88.6789C43.2096 88.9198 43.3658 89.1281 43.509 89.3039C43.6588 89.4797 43.7987 89.6327 43.929 89.7629C44.0657 89.8866 44.1959 89.9907 44.3196 90.0754C44.4433 90.1535 44.5702 90.2154 44.7004 90.2609V90.3H41.8782C41.8586 90.1763 41.7935 90.0135 41.6829 89.8117C41.5787 89.6034 41.455 89.3983 41.3118 89.1965L37.8547 84.3234C37.705 84.3364 37.5553 84.3495 37.4055 84.3625C37.2558 84.369 37.1028 84.3723 36.9465 84.3723C36.7642 84.3723 36.5787 84.3657 36.3899 84.3527C36.2076 84.3397 36.0221 84.3169 35.8333 84.2844V86.4816ZM35.8333 83.5226C36.009 83.5617 36.1881 83.591 36.3704 83.6105C36.5527 83.6236 36.7284 83.6301 36.8977 83.6301C37.386 83.6301 37.8319 83.5585 38.2356 83.4152C38.6392 83.2655 38.981 83.0409 39.261 82.7414C39.5474 82.4419 39.7688 82.0708 39.925 81.6281C40.0813 81.1789 40.1594 80.6548 40.1594 80.0558C40.1594 79.5676 40.1041 79.1249 39.9934 78.7277C39.8827 78.3306 39.7167 77.9953 39.4954 77.7219C39.2805 77.4419 39.0071 77.2271 38.675 77.0773C38.343 76.9211 37.9556 76.843 37.5129 76.843C37.0637 76.843 36.7056 76.8657 36.4387 76.9113C36.1718 76.9569 35.97 77.0057 35.8333 77.0578V83.5226ZM48.6653 77.1555C47.8971 77.1555 47.2037 77.1913 46.5852 77.2629C45.9667 77.328 45.4329 77.3996 44.9836 77.4777C44.4628 77.5754 43.9973 77.6828 43.5872 77.8L43.8704 76.218C43.9485 76.2245 44.0657 76.231 44.2219 76.2375C44.3782 76.244 44.5507 76.2505 44.7395 76.257C44.9348 76.2635 45.1366 76.27 45.345 76.2766C45.5598 76.2766 45.7616 76.2798 45.9504 76.2863C46.1392 76.2863 46.3053 76.2896 46.4485 76.2961C46.5982 76.2961 46.7056 76.2961 46.7708 76.2961H52.3469C52.412 76.2961 52.5162 76.2961 52.6594 76.2961C52.8092 76.2896 52.9784 76.2863 53.1672 76.2863C53.356 76.2798 53.5546 76.2766 53.7629 76.2766C53.9778 76.27 54.1796 76.2635 54.3684 76.257C54.5637 76.2505 54.7395 76.244 54.8958 76.2375C55.052 76.231 55.1692 76.2245 55.2473 76.218L55.5305 77.8C55.1139 77.6828 54.6451 77.5754 54.1243 77.4777C53.675 77.3996 53.1412 77.328 52.5227 77.2629C51.9042 77.1913 51.2109 77.1555 50.4426 77.1555V86.4816C50.4426 87.035 50.4491 87.52 50.4622 87.9367C50.4817 88.3469 50.5012 88.7017 50.5208 89.0012C50.5468 89.3006 50.5761 89.5513 50.6086 89.7531C50.6477 89.9549 50.6868 90.1242 50.7258 90.2609V90.3H48.3918V90.2609C48.4309 90.1242 48.4667 89.9549 48.4993 89.7531C48.5318 89.5513 48.5611 89.3006 48.5872 89.0012C48.6132 88.7017 48.6327 88.3469 48.6458 87.9367C48.6588 87.52 48.6653 87.035 48.6653 86.4816V77.1555ZM57.0247 90.2609C57.0637 90.1242 57.0995 89.9549 57.1321 89.7531C57.1646 89.5513 57.1939 89.3006 57.22 89.0012C57.246 88.7017 57.2655 88.3469 57.2786 87.9367C57.2916 87.52 57.2981 87.035 57.2981 86.4816V80.1242C57.2981 79.5708 57.2916 79.0891 57.2786 78.6789C57.2655 78.2622 57.246 77.9042 57.22 77.6047C57.1939 77.2987 57.1646 77.0448 57.1321 76.843C57.0995 76.6411 57.0637 76.4719 57.0247 76.3351V76.2961H59.3586V76.3351C59.3196 76.4719 59.2805 76.6411 59.2415 76.843C59.2089 77.0448 59.1796 77.2987 59.1536 77.6047C59.134 77.9042 59.1145 78.2622 59.095 78.6789C59.0819 79.0891 59.0754 79.5708 59.0754 80.1242V86.4816C59.0754 87.035 59.0819 87.52 59.095 87.9367C59.1145 88.3469 59.134 88.7017 59.1536 89.0012C59.1796 89.3006 59.2089 89.5513 59.2415 89.7531C59.2805 89.9549 59.3196 90.1242 59.3586 90.2609V90.3H57.0247V90.2609ZM73.5774 78.4445L73.4895 78.4836C72.9817 78.0148 72.3697 77.6405 71.6536 77.3605C70.9439 77.0806 70.1627 76.9406 69.3098 76.9406C68.4895 76.9406 67.7375 77.0708 67.054 77.3312C66.3704 77.5851 65.7812 77.9562 65.2864 78.4445C64.7981 78.9328 64.4172 79.5318 64.1438 80.2414C63.8704 80.951 63.7336 81.7583 63.7336 82.6633C63.7336 83.6594 63.8639 84.5904 64.1243 85.4562C64.3847 86.3156 64.7721 87.0611 65.2864 87.6926C65.8007 88.3241 66.442 88.8221 67.2102 89.1867C67.9849 89.5448 68.8866 89.7238 69.9153 89.7238C70.2864 89.7238 70.6575 89.6848 71.0286 89.6066C71.3997 89.5285 71.7545 89.4146 72.093 89.2648C72.4381 89.1086 72.7603 88.923 73.0598 88.7082C73.3658 88.4868 73.6425 88.2362 73.8899 87.9562L73.9973 88.0246L73.2161 90.0168C72.7278 90.2056 72.1874 90.3488 71.595 90.4465C71.009 90.5506 70.4166 90.6027 69.8176 90.6027C68.6132 90.6027 67.5097 90.4302 66.5071 90.0851C65.511 89.7336 64.6516 89.2388 63.929 88.6008C63.2128 87.9627 62.6529 87.1978 62.2493 86.3058C61.8521 85.4074 61.6536 84.4113 61.6536 83.3176C61.6536 82.6991 61.7317 82.0904 61.8879 81.4914C62.0507 80.8924 62.2851 80.3228 62.5911 79.7824C62.8971 79.242 63.2747 78.7473 63.7239 78.298C64.1731 77.8423 64.6842 77.4484 65.2571 77.1164C65.8365 76.7844 66.4713 76.5272 67.1614 76.3449C67.858 76.1561 68.6099 76.0617 69.4172 76.0617C70.6737 76.0617 71.8391 76.2538 72.9133 76.6379L73.5774 78.4445ZM75.7844 76.2961C76.5982 76.2961 77.4055 76.2928 78.2063 76.2863C79.0136 76.2798 79.7525 76.2733 80.4231 76.2668C81.0937 76.2538 81.6666 76.2375 82.1418 76.218C82.6171 76.1984 82.9394 76.1724 83.1086 76.1398L82.6301 77.4387C82.4153 77.3801 82.1646 77.328 81.8782 77.2824C81.6308 77.2433 81.328 77.2075 80.97 77.175C80.6184 77.1359 80.2115 77.1164 79.7493 77.1164C79.593 77.1164 79.4042 77.1229 79.1829 77.1359C78.968 77.1424 78.7597 77.1522 78.5579 77.1652C78.3235 77.1782 78.0859 77.1913 77.845 77.2043V82.5363C78.5155 82.5298 79.121 82.5103 79.6614 82.4777C80.2017 82.4452 80.6607 82.4126 81.0383 82.3801C81.481 82.341 81.8717 82.2954 82.2102 82.2433L81.9075 83.6594C81.4583 83.6008 80.9993 83.5454 80.5305 83.4933C80.1269 83.4478 79.6874 83.4087 79.2122 83.3762C78.7369 83.3371 78.2812 83.3176 77.845 83.3176V89.4406C78.6132 89.4406 79.3196 89.4081 79.9641 89.343C80.6086 89.2779 81.1718 89.203 81.6536 89.1183C82.2135 89.0272 82.7245 88.9198 83.1868 88.7961L82.9036 90.3781C82.8254 90.3716 82.7083 90.3651 82.552 90.3586C82.3958 90.3521 82.22 90.3456 82.0247 90.3391C81.8359 90.3325 81.634 90.326 81.4192 90.3195C81.2109 90.3195 81.0123 90.3163 80.8235 90.3098C80.6347 90.3098 80.4654 90.3065 80.3157 90.3C80.1724 90.3 80.0683 90.3 80.0032 90.3H75.7844V90.2609C75.8235 90.1242 75.8593 89.9549 75.8918 89.7531C75.9309 89.5513 75.9635 89.3006 75.9895 89.0012C76.0155 88.7017 76.0351 88.3469 76.0481 87.9367C76.0611 87.52 76.0676 87.035 76.0676 86.4816V80.1242C76.0676 79.5708 76.0611 79.0891 76.0481 78.6789C76.0351 78.2622 76.0155 77.9042 75.9895 77.6047C75.9635 77.2987 75.9309 77.0448 75.8918 76.843C75.8593 76.6411 75.8235 76.4719 75.7844 76.3351V76.2961Z" fill="#F0F0F0"/>
</svg>
