<svg width="179" height="45" viewBox="0 0 179 45" fill="none" xmlns="http://www.w3.org/2000/svg">
<path d="M6.42188 10.6172V10.7109C6.39062 10.7891 6.36719 10.9062 6.35156 11.0625C6.33594 11.2188 6.32812 11.3594 6.32812 11.4844C6.32812 11.9688 6.39062 12.5078 6.51562 13.1016C6.65625 13.6797 6.91406 14.4062 7.28906 15.2812L17.6719 38.6953L27.7031 15.4688C27.9375 14.8906 28.1875 14.2578 28.4531 13.5703C28.7188 12.8828 28.8516 12.1875 28.8516 11.4844C28.8516 11.2969 28.8359 11.1406 28.8047 11.0156C28.7734 10.875 28.7422 10.7734 28.7109 10.7109V10.6172H33.5156V10.7109C33.2188 11.0078 32.8594 11.5391 32.4375 12.3047C32.0156 13.0703 31.5547 14.0156 31.0547 15.1406L17.625 44.9531H15.75L3.02344 16.2891C2.72656 15.6172 2.41406 14.9688 2.08594 14.3438C1.77344 13.7188 1.47656 13.1562 1.19531 12.6562C0.914062 12.1406 0.664062 11.7109 0.445312 11.3672C0.226562 11.0234 0.078125 10.8047 0 10.7109V10.6172H6.42188ZM35.9062 10.6172C37.8594 10.6172 39.7969 10.6094 41.7188 10.5938C43.6562 10.5781 45.4297 10.5625 47.0391 10.5469C48.6484 10.5156 50.0234 10.4766 51.1641 10.4297C52.3047 10.3828 53.0781 10.3203 53.4844 10.2422L52.3359 13.3594C51.8203 13.2188 51.2188 13.0938 50.5312 12.9844C49.9375 12.8906 49.2109 12.8047 48.3516 12.7266C47.5078 12.6328 46.5312 12.5859 45.4219 12.5859C45.0469 12.5859 44.5938 12.6016 44.0625 12.6328C43.5469 12.6484 43.0469 12.6719 42.5625 12.7031C42 12.7344 41.4297 12.7656 40.8516 12.7969V25.5938C42.4609 25.5781 43.9141 25.5312 45.2109 25.4531C46.5078 25.375 47.6094 25.2969 48.5156 25.2188C49.5781 25.125 50.5156 25.0156 51.3281 24.8906L50.6016 28.2891C49.5234 28.1484 48.4219 28.0156 47.2969 27.8906C46.3281 27.7812 45.2734 27.6875 44.1328 27.6094C42.9922 27.5156 41.8984 27.4688 40.8516 27.4688V42.1641C42.6953 42.1641 44.3906 42.0859 45.9375 41.9297C47.4844 41.7734 48.8359 41.5938 49.9922 41.3906C51.3359 41.1719 52.5625 40.9141 53.6719 40.6172L52.9922 44.4141C52.8047 44.3984 52.5234 44.3828 52.1484 44.3672C51.7734 44.3516 51.3516 44.3359 50.8828 44.3203C50.4297 44.3047 49.9453 44.2891 49.4297 44.2734C48.9297 44.2734 48.4531 44.2656 48 44.25C47.5469 44.25 47.1406 44.2422 46.7812 44.2266C46.4375 44.2266 46.1875 44.2266 46.0312 44.2266H35.9062V44.1328C36 43.8047 36.0859 43.3984 36.1641 42.9141C36.2578 42.4297 36.3359 41.8281 36.3984 41.1094C36.4609 40.3906 36.5078 39.5391 36.5391 38.5547C36.5703 37.5547 36.5859 36.3906 36.5859 35.0625V19.8047C36.5859 18.4766 36.5703 17.3203 36.5391 16.3359C36.5078 15.3359 36.4609 14.4766 36.3984 13.7578C36.3359 13.0234 36.2578 12.4141 36.1641 11.9297C36.0859 11.4453 36 11.0391 35.9062 10.7109V10.6172ZM50.6953 3.65625C49.5391 4.04688 48.3672 4.46094 47.1797 4.89844C46.6641 5.08594 46.125 5.28906 45.5625 5.50781C45 5.72656 44.4297 5.96094 43.8516 6.21094C43.2734 6.46094 42.6875 6.71875 42.0938 6.98438C41.5156 7.23438 40.9609 7.5 40.4297 7.78125L39.9141 6.91406C40.9297 6.24219 41.9375 5.50781 42.9375 4.71094C43.9531 3.91406 44.8828 3.16406 45.7266 2.46094C46.6953 1.64844 47.6328 0.828125 48.5391 0L50.6953 3.65625ZM64.3828 35.0625C64.3828 36.3906 64.3984 37.5547 64.4297 38.5547C64.4766 39.5391 64.5234 40.3906 64.5703 41.1094C64.6328 41.8281 64.7031 42.4297 64.7812 42.9141C64.875 43.3984 64.9688 43.8047 65.0625 44.1328V44.2266H59.4375V44.1328C59.5312 43.8047 59.6172 43.3984 59.6953 42.9141C59.7891 42.4297 59.8594 41.8281 59.9062 41.1094C59.9688 40.3906 60.0156 39.5391 60.0469 38.5547C60.0938 37.5703 60.1172 36.4062 60.1172 35.0625V19.8047C60.1172 18.4766 60.0938 17.3203 60.0469 16.3359C60.0156 15.3359 59.9688 14.4766 59.9062 13.7578C59.8594 13.0391 59.7891 12.4375 59.6953 11.9531C59.6172 11.4531 59.5312 11.0391 59.4375 10.7109V10.6172L60.4219 10.7109C60.7188 10.7422 61.0469 10.7656 61.4062 10.7812C61.7812 10.7812 62.1641 10.7812 62.5547 10.7812C63.1641 10.7812 63.9844 10.7109 65.0156 10.5703C66.0625 10.4141 67.3906 10.3359 69 10.3359C70.5 10.3359 71.8828 10.5391 73.1484 10.9453C74.4297 11.3516 75.5391 11.9453 76.4766 12.7266C77.4141 13.5078 78.1406 14.4688 78.6562 15.6094C79.1875 16.7344 79.4531 18.0156 79.4531 19.4531C79.4531 20.5781 79.3047 21.625 79.0078 22.5938C78.7266 23.5469 78.3203 24.4141 77.7891 25.1953C77.2734 25.9766 76.6484 26.6719 75.9141 27.2812C75.1797 27.875 74.3594 28.375 73.4531 28.7812L81.6797 40.3359C82.0859 40.9141 82.4609 41.4141 82.8047 41.8359C83.1641 42.2578 83.5 42.625 83.8125 42.9375C84.1406 43.2344 84.4531 43.4844 84.75 43.6875C85.0469 43.875 85.3516 44.0234 85.6641 44.1328V44.2266H78.8906C78.8438 43.9297 78.6875 43.5391 78.4219 43.0547C78.1719 42.5547 77.875 42.0625 77.5312 41.5781L69.2344 29.8828C68.875 29.9141 68.5156 29.9453 68.1562 29.9766C67.7969 29.9922 67.4297 30 67.0547 30C66.6172 30 66.1719 29.9844 65.7188 29.9531C65.2812 29.9219 64.8359 29.8672 64.3828 29.7891V35.0625ZM64.3828 27.9609C64.8047 28.0547 65.2344 28.125 65.6719 28.1719C66.1094 28.2031 66.5312 28.2188 66.9375 28.2188C68.1094 28.2188 69.1797 28.0469 70.1484 27.7031C71.1172 27.3438 71.9375 26.8047 72.6094 26.0859C73.2969 25.3672 73.8281 24.4766 74.2031 23.4141C74.5781 22.3359 74.7656 21.0781 74.7656 19.6406C74.7656 18.4688 74.6328 17.4062 74.3672 16.4531C74.1016 15.5 73.7031 14.6953 73.1719 14.0391C72.6562 13.3672 72 12.8516 71.2031 12.4922C70.4062 12.1172 69.4766 11.9297 68.4141 11.9297C67.3359 11.9297 66.4766 11.9844 65.8359 12.0938C65.1953 12.2031 64.7109 12.3203 64.3828 12.4453V27.9609ZM95.1797 12.6797C93.3359 12.6797 91.6719 12.7656 90.1875 12.9375C88.7031 13.0938 87.4219 13.2656 86.3438 13.4531C85.0938 13.6875 83.9766 13.9453 82.9922 14.2266L83.6719 10.4297C83.8594 10.4453 84.1406 10.4609 84.5156 10.4766C84.8906 10.4922 85.3047 10.5078 85.7578 10.5234C86.2266 10.5391 86.7109 10.5547 87.2109 10.5703C87.7266 10.5703 88.2109 10.5781 88.6641 10.5938C89.1172 10.5938 89.5156 10.6016 89.8594 10.6172C90.2188 10.6172 90.4766 10.6172 90.6328 10.6172H104.016C104.172 10.6172 104.422 10.6172 104.766 10.6172C105.125 10.6016 105.531 10.5938 105.984 10.5938C106.438 10.5781 106.914 10.5703 107.414 10.5703C107.93 10.5547 108.414 10.5391 108.867 10.5234C109.336 10.5078 109.758 10.4922 110.133 10.4766C110.508 10.4609 110.789 10.4453 110.977 10.4297L111.656 14.2266C110.656 13.9453 109.531 13.6875 108.281 13.4531C107.203 13.2656 105.922 13.0938 104.438 12.9375C102.953 12.7656 101.289 12.6797 99.4453 12.6797V35.0625C99.4453 36.3906 99.4609 37.5547 99.4922 38.5547C99.5391 39.5391 99.5859 40.3906 99.6328 41.1094C99.6953 41.8281 99.7656 42.4297 99.8438 42.9141C99.9375 43.3984 100.031 43.8047 100.125 44.1328V44.2266H94.5234V44.1328C94.6172 43.8047 94.7031 43.3984 94.7812 42.9141C94.8594 42.4297 94.9297 41.8281 94.9922 41.1094C95.0547 40.3906 95.1016 39.5391 95.1328 38.5547C95.1641 37.5547 95.1797 36.3906 95.1797 35.0625V12.6797ZM115.242 44.1328C115.336 43.8047 115.422 43.3984 115.5 42.9141C115.578 42.4297 115.648 41.8281 115.711 41.1094C115.773 40.3906 115.82 39.5391 115.852 38.5547C115.883 37.5547 115.898 36.3906 115.898 35.0625V19.8047C115.898 18.4766 115.883 17.3203 115.852 16.3359C115.82 15.3359 115.773 14.4766 115.711 13.7578C115.648 13.0234 115.578 12.4141 115.5 11.9297C115.422 11.4453 115.336 11.0391 115.242 10.7109V10.6172H120.844V10.7109C120.75 11.0391 120.656 11.4453 120.562 11.9297C120.484 12.4141 120.414 13.0234 120.352 13.7578C120.305 14.4766 120.258 15.3359 120.211 16.3359C120.18 17.3203 120.164 18.4766 120.164 19.8047V35.0625C120.164 36.3906 120.18 37.5547 120.211 38.5547C120.258 39.5391 120.305 40.3906 120.352 41.1094C120.414 41.8281 120.484 42.4297 120.562 42.9141C120.656 43.3984 120.75 43.8047 120.844 44.1328V44.2266H115.242V44.1328ZM154.969 15.7734L154.758 15.8672C153.539 14.7422 152.07 13.8438 150.352 13.1719C148.648 12.5 146.773 12.1641 144.727 12.1641C142.758 12.1641 140.953 12.4766 139.312 13.1016C137.672 13.7109 136.258 14.6016 135.07 15.7734C133.898 16.9453 132.984 18.3828 132.328 20.0859C131.672 21.7891 131.344 23.7266 131.344 25.8984C131.344 28.2891 131.656 30.5234 132.281 32.6016C132.906 34.6641 133.836 36.4531 135.07 37.9688C136.305 39.4844 137.844 40.6797 139.688 41.5547C141.547 42.4141 143.711 42.8438 146.18 42.8438C147.07 42.8438 147.961 42.75 148.852 42.5625C149.742 42.375 150.594 42.1016 151.406 41.7422C152.234 41.3672 153.008 40.9219 153.727 40.4062C154.461 39.875 155.125 39.2734 155.719 38.6016L155.977 38.7656L154.102 43.5469C152.93 44 151.633 44.3438 150.211 44.5781C148.805 44.8281 147.383 44.9531 145.945 44.9531C143.055 44.9531 140.406 44.5391 138 43.7109C135.609 42.8672 133.547 41.6797 131.812 40.1484C130.094 38.6172 128.75 36.7812 127.781 34.6406C126.828 32.4844 126.352 30.0938 126.352 27.4688C126.352 25.9844 126.539 24.5234 126.914 23.0859C127.305 21.6484 127.867 20.2812 128.602 18.9844C129.336 17.6875 130.242 16.5 131.32 15.4219C132.398 14.3281 133.625 13.3828 135 12.5859C136.391 11.7891 137.914 11.1719 139.57 10.7344C141.242 10.2813 143.047 10.0547 144.984 10.0547C148 10.0547 150.797 10.5156 153.375 11.4375L154.969 15.7734ZM160.266 10.6172C162.219 10.6172 164.156 10.6094 166.078 10.5938C168.016 10.5781 169.789 10.5625 171.398 10.5469C173.008 10.5156 174.383 10.4766 175.523 10.4297C176.664 10.3828 177.438 10.3203 177.844 10.2422L176.695 13.3594C176.18 13.2188 175.578 13.0938 174.891 12.9844C174.297 12.8906 173.57 12.8047 172.711 12.7266C171.867 12.6328 170.891 12.5859 169.781 12.5859C169.406 12.5859 168.953 12.6016 168.422 12.6328C167.906 12.6484 167.406 12.6719 166.922 12.7031C166.359 12.7344 165.789 12.7656 165.211 12.7969V25.5938C166.82 25.5781 168.273 25.5312 169.57 25.4531C170.867 25.375 171.969 25.2969 172.875 25.2188C173.938 25.125 174.875 25.0156 175.688 24.8906L174.961 28.2891C173.883 28.1484 172.781 28.0156 171.656 27.8906C170.688 27.7812 169.633 27.6875 168.492 27.6094C167.352 27.5156 166.258 27.4688 165.211 27.4688V42.1641C167.055 42.1641 168.75 42.0859 170.297 41.9297C171.844 41.7734 173.195 41.5938 174.352 41.3906C175.695 41.1719 176.922 40.9141 178.031 40.6172L177.352 44.4141C177.164 44.3984 176.883 44.3828 176.508 44.3672C176.133 44.3516 175.711 44.3359 175.242 44.3203C174.789 44.3047 174.305 44.2891 173.789 44.2734C173.289 44.2734 172.812 44.2656 172.359 44.25C171.906 44.25 171.5 44.2422 171.141 44.2266C170.797 44.2266 170.547 44.2266 170.391 44.2266H160.266V44.1328C160.359 43.8047 160.445 43.3984 160.523 42.9141C160.617 42.4297 160.695 41.8281 160.758 41.1094C160.82 40.3906 160.867 39.5391 160.898 38.5547C160.93 37.5547 160.945 36.3906 160.945 35.0625V19.8047C160.945 18.4766 160.93 17.3203 160.898 16.3359C160.867 15.3359 160.82 14.4766 160.758 13.7578C160.695 13.0234 160.617 12.4141 160.523 11.9297C160.445 11.4453 160.359 11.0391 160.266 10.7109V10.6172Z" fill="#111111"/>
</svg>
